<svg height="512" width="512" xmlns="http://www.w3.org/2000/svg"><path d="m488.7873535 304.6520386c82.7328491-131.8115845-74.289978-217.9081421-179.2737427-237.7867432-210.397705-39.838623-428.2651367 148.1499024-234.0518798 290.0749512 28.7993774 21.0457153 70.324585 35.3029175 116.4227905 41.9146729v51.7036743h86.0199585v-48.2417603c24.8613892-1.4611206 49.6417236-5.050354 73.2542725-10.8887939 15.2028809 29.5859375 28.2299194 59.1305542 28.2299194 59.1305542h97.6181641s-31.7027588-53.7259521-51.9373779-87.6442261c26.5317992-14.9699097 48.6736449-34.2935181 63.7178954-58.2623291zm-210.8828735 58.6845703v-31.2880249h31.8950195c5.6127319 0 14.8864746 12.4285278 24.8609619 29.2294312-18.815979 2.1847534-38.0073852 2.8372192-56.7559814 2.0585937zm64.1647339-88.1033325h-64.1647339v-57.4173584h64.1647339s21.3881836 9.5228271 21.3881836 29.1495972c0 19.626831-21.3881836 28.2677612-21.3881836 28.2677612zm70.2201538 66.4004516c-1.3099365-2.1505737-2.3173828-3.7824097-2.9386597-4.7525635-7.3482056-11.4749146-41.1454468-19.3303223-41.1454468-19.3303223s79.8060913-3.8660278 78.8395996-84.0869141c-.72229-59.9508057-60.1737671-76.3547974-90.0109253-76.3547974h-165.149414v190.7562256c-12.9213867-4.614502-24.5040894-10.1928711-34.1942749-16.7020264-148.8233643-99.9692381 18.1259155-232.3846434 179.3511963-204.3231199 80.4478149 14.0020752 200.772583 74.6468506 137.3754272 167.4923096-13.9603882 20.4450683-35.8985596 36.0893554-62.1275024 47.3012084z"/></svg>